# xmcd
#
# Track frame offsets: 
#        150
#        12156
#        24204
#        36114
#        47265
#        58850
#        70565
#        82844
#        94276
#        103792
#        116584
#        126188
#        136813
#        146530
#        160076
#        168515
#        181841
#        191306
#        202333
#        214894
#        225520
#        235786
#        246340
#        258693
#        274530
#        286576
#        295223
#        304917
#        314391
#        323523
#        333336
#
# Disc length: 4602 seconds
#
# Revision: 0
# Processed by: cddbd v1.5.2PL0 Copyright (c) Steve Scherf et al.
# Submitted via: ExactAudioCopy v0.95b4
#
DISCID=af11f81f
DTITLE=Reno and Smiley - 1959-1963 [CD4]
DYEAR=2006
DGENRE=Bluegrass
TTITLE0=I'm Jealous of You
TTITLE1=Bouquet of Roses
TTITLE2=It's a Sin
TTITLE3=Excuse Me (I've Got a Heartache)
TTITLE4=Honky Tonk Heaven
TTITLE5=Make Believe Heaven
TTITLE6=Only in a Dreamworld
TTITLE7=Don't Let Temptation Turn You 'Round
TTITLE8=Kansas City Railroad Blues
TTITLE9=I'll See It Happen to You
TTITLE10=Grandfather's Clock
TTITLE11=Black and White Rag
TTITLE12=Dill Pickles
TTITLE13=Old Rugged Cross
TTITLE14=River of Jordan
TTITLE15=Amazing Grace
TTITLE16=Echoes from the Burning Bush
TTITLE17=Jesus Savior, Pilot Me
TTITLE18=Precious Memories
TTITLE19=In the Sweet Bye and Bye
TTITLE20=Mansion in the Sky
TTITLE21=Rock of Ages
TTITLE22=What a Friend We Have in Jesus
TTITLE23=Farther Along
TTITLE24=Where We'll Never Grow Old
TTITLE25=Seeing Nellie Home
TTITLE26=Keep Your Skillet Good and Greasy
TTITLE27=Pretty Polly
TTITLE28=Weeping Willow Tree
TTITLE29=Cripple Creek
TTITLE30=Lady of Spain
EXTD=
EXTT0=
EXTT1=
EXTT2=
EXTT3=
EXTT4=
EXTT5=
EXTT6=
EXTT7=
EXTT8=
EXTT9=
EXTT10=
EXTT11=
EXTT12=
EXTT13=
EXTT14=
EXTT15=
EXTT16=
EXTT17=
EXTT18=
EXTT19=
EXTT20=
EXTT21=
EXTT22=
EXTT23=
EXTT24=
EXTT25=
EXTT26=
EXTT27=
EXTT28=
EXTT29=
EXTT30=
PLAYORDER=
